<?xml version="1.0" encoding="UTF-8"?>
<svg id="Layer_1" data-name="Layer 1" xmlns="http://www.w3.org/2000/svg" viewBox="0 0 900 300">
  <defs>
    <style>
      .line {
        stroke-width: 0px;
        fill: #fff;
      }

      .water {
        fill: #08f;
      }

      .grass, .cls-2 {
        fill: #4c0;
      }

      .pin {
        fill: #d30;
      }

      .gun {
        fill: #222;
      }
      .gun-line {
        fill: #444;
      }
    </style>
  </defs>
  <!-- <path class="cls-2" d="M900,300H0V0h900v300ZM58.53,135.67c-2.83.08-5.04.23-7.34-.13-3.14-.49-4.45.59-5.16,3.72-.55,2.43-1.16,4.84-1.77,7.25-6.29,24.94-12.59,49.89-18.86,74.84-.24.96-.33,1.97-.34,2.96-.04,3.33-.06,6.67,0,10,.06,4.16.5,4.59,4.61,4.59,60.99-.01,121.99-.03,182.98-.05,1,0,2.01.09,3-.04,1.79-.25,3.35-1.18,3.42-3.06.16-4.61.86-9.42-.13-13.82-3.72-16.48-7.93-32.86-12.19-49.21-.85-3.27-.74-6.08.5-9.17,2.51-6.24,3.8-12.73,2.24-19.45-2.51-10.82-8.59-18.75-18.84-23.48-7.73-3.57-15.58-4.13-23.61-1.63-7.54,2.34-13.72,6.74-17.83,13.55-1.5,2.48-3.16,3.56-6,3.3-3.29-.3-6.6-.47-9.9-.45-6.14.04-12.29.3-18.43.38-1.73.02-2.14-.66-1.55-2.13.94-2.3,1.96-4.56,2.88-6.86,2.5-6.27,3.26-12.54,2.04-19.41-2.61-14.66-17.07-26.52-32.45-26.37-23.61.23-38.64,23.02-31.27,43.91,1.19,3.39,2.51,6.73,4.02,10.78ZM735.08,165.44c-.23.01-.47.02-.7.03-.16-1.06-.25-2.13-.48-3.17-3.54-16.16-8.36-32-11.54-48.25-1.53-7.79-3.57-15.48-5.36-23.21-.59-2.55-1.8-3.79-4.43-3.85-4.99-.1-10-.14-14.98.07-3.49.15-4.51,1.5-4.55,5.13-.07,6.66-.27,13.32-.14,19.97.35,18.29-.04,36.57.89,54.86.65,12.78.16,25.61.2,38.42,0,2.16-.02,4.35.3,6.48.46,3.06,1.55,3.96,4.67,4.08,2.49.09,4.99,0,7.48-.14,2.95-.16,4.16-1.28,4.42-4.27.18-1.98.1-4,0-5.99-.21-4.07-.72-8.13-.76-12.2-.18-21.32-.25-42.63-.33-63.95,0-2.3.13-4.6.2-6.9,1.12,1.42,1.67,2.9,2.02,4.43,2.07,8.86,4.07,17.74,6.16,26.6,1.14,4.83,2.49,9.61,3.61,14.45,1.12,4.88,2.74,9.6,3.48,14.62.85,5.69,2.9,11.19,4.37,16.79.88,3.36,1.69,6.74,2.46,10.13.56,2.44,1.46,4.37,4.42,4.53,2.13.12,4.25.73,6.38.76,8.64.13,9.21-.45,9.18-8.83-.08-20.62-.15-41.23-.33-61.85-.04-4.31-.67-8.61-.76-12.92-.16-8.46,1.14-16.9.25-25.37-.07-.66.06-1.33.05-2-.04-4.46.04-8.93-.2-13.38-.15-2.75-1.37-4-4.01-4.22-2.64-.23-5.34-.25-7.98.03-3.37.35-4.05,1.34-4.19,4.95-.04,1,0,2-.01,3-.4,22.09.54,44.18.21,66.28-.02,1.63,0,3.27,0,4.9ZM402.76,157.17c5.94,0,11.08-.08,16.22.03,2.44.05,2.73.51,2.85,3.05.05,1,.02,2,0,3-.16,15.89-.47,31.79-.39,47.68.02,3.95,1.1,5.4,4.97,5.27,3.16-.11,6.33.04,9.49-.04,2.84-.07,3.56-.73,4.02-3.39.14-.81.14-1.66.13-2.49-.05-18.82-.08-37.64-.2-56.46-.01-1.94-1.09-4.03-.66-5.8,1.23-5.02.45-10.08.63-15.08.45-12.64.23-25.31.27-37.97,0-1.16,0-2.34-.13-3.49-.31-2.9-1.55-4.27-4.37-4.39-3.49-.16-7-.03-10.49-.07-1.74-.02-2.88.78-3.32,2.43-.34,1.27-.71,2.6-.69,3.9.18,14.14.38,28.28.71,42.42.09,4.02-.06,4.42-4.18,4.91-.16.02-.32.13-.48.12-3.95-.3-7.91-.6-11.86-.9-1.71-.13-2.29-1.31-2.23-2.74.05-1.46.62-2.92.6-4.37-.11-8.47-.35-16.94-.5-25.41-.1-5.33-.06-10.66-.18-15.98-.06-2.66-.94-3.99-3.19-4.34-3.42-.54-6.85-1.24-10.38-.24-3.32.94-4.27,1.78-4.31,5.03-.08,8.15-.18,16.31-.15,24.46.05,16.82.18,33.64.28,50.46.05,9.14.07,18.28.17,27.41.06,5.55.25,11.1.37,16.65.09,4.53.6,5.04,5.29,5.08,2.67.02,5.33.02,8,0,4.49-.05,4.99-.41,5.01-4.78.03-6.83-.13-13.66-.22-20.49-.05-4.16-.04-8.33-.19-12.49-.24-6.8-.59-13.59-.91-20.96ZM587.4,205.31c2.19-.26,4.41-.94,5.08-3.25,1.82-6.23,3.41-12.54,2-19.1-2.21-10.2-6.64-19.47-12.27-28.16-5.15-7.96-10.61-15.7-15.73-23.67-2.23-3.47-4.22-7.16-5.84-10.95-1.78-4.18-2.65-8.61-.54-13.04,1.11-2.33,2.63-4.46,5.24-4.97,8.52-1.65,12.88,3.49,12.72,9.35-.05,1.83-.12,3.68.08,5.49.23,2.08,1.16,2.66,3.32,2.9,3.6.4,7.15-1,10.8-.14.74.18,2.37-.87,2.63-1.66.59-1.84.79-3.87.78-5.82-.01-2.14-.47-4.28-.67-6.42-.84-8.69-8.98-18.99-19.33-20.06-4.33-.45-8.51-.69-12.86-.05-4.51.66-8.21,2.47-11.45,5.5-8.08,7.56-9.72,17.2-7.81,27.39,1.81,9.69,5.99,18.61,11.48,26.84,4.61,6.92,9.44,13.7,13.76,20.79,3.19,5.23,5.94,10.75,8.46,16.34,1.63,3.62,2.41,7.55.91,11.62-.93,2.53-2.35,4.22-5.02,5.01-5.6,1.67-10.58-.67-12.07-6.34-.79-2.99-.71-6.23-.93-9.36-.26-3.79-1.07-4.68-4.87-4.72-3.33-.03-6.66.16-9.98.15-2.01,0-3.15,1.05-3.61,2.8-.33,1.26-.52,2.64-.36,3.91.46,3.78.84,7.6,1.76,11.29,1.84,7.41,5.76,13.62,12.95,16.73,8.84,3.82,17.96,4.18,26.97.16,3.42-1.52,5-4.58,4.4-8.57ZM473.87,198.09c0-3.34.54-6.29-.14-8.92-.8-3.07-.24-5.87-.05-8.82.13-2.03-.63-4.12-.98-6.18-.1-.61-.45-1.43-.18-1.8,1.32-1.81.94-3.77.85-5.76-.09-2.08.95-4.02.07-6.3-.73-1.91.77-3.36,2.9-3.46,2.62-.12,5.24-.08,7.86-.1,2.16-.02,4.34.14,6.49-.07,3.26-.31,4.32-1.56,4.43-4.85.07-2.16.09-4.32.03-6.48-.13-4.5-1.12-5.49-5.69-5.5-4.66,0-9.32.11-13.98.21-1.57.03-2.6-.39-2.44-2.23.09-.99.08-2,.07-2.99-.08-8.3.19-16.64-1.33-24.84-.26-1.4.29-2.52.22-3.77-.09-1.8.91-2.26,2.49-2.25,6.16.02,12.32,0,18.48-.02,1.33,0,2.7.05,3.97-.24,1.73-.39,3.08-1.46,3.1-3.42.05-3.49.04-6.99-.09-10.48-.06-1.75-1.24-2.75-2.96-2.75-4.49,0-8.98.09-13.46.17-1.28.02-2.57.26-3.83.13-7.41-.75-14.79-.04-22.15.64-2.31.21-3.4,1.68-3.62,4.04-.09.99-.06,2,0,2.99.37,7.13.94,14.26,1.09,21.39.19,8.82.03,17.64.05,26.47.01,4.94.48,9.87.17,14.83-.16,2.59.85,5.03.32,7.84-.65,3.43.07,7.13.23,10.71.23,4.97.52,9.93.7,14.89.03.77-.5,1.56-.51,2.35-.05,5.82-.12,11.64,0,17.45.05,2.59,1.46,3.77,4.14,4.01.66.06,1.33.01,2,.01,11.32,0,22.64,0,33.96-.01.83,0,1.67.06,2.49-.04,2.29-.28,2.92-.99,3.38-3.39.61-3.2.78-6.38.16-9.61-.51-2.66-1.06-3.44-3.57-3.77-1.15-.15-2.33-.09-3.49-.09-6.82,0-13.63,0-21.22,0ZM785.9,197.93c.83-6.42-1.14-12.1-.14-17.91.35-2.05.34-4.31-.9-6.3-.29-.46-.42-1.32-.18-1.75,1.67-3,.84-6.32,1.32-9.46.29-1.93-.49-4.59.53-5.67,1.02-1.07,3.69-.61,5.64-.74,1.16-.08,2.33-.01,3.49-.01,2.66,0,5.33,0,7.99-.03,1.93-.02,3.27-.89,3.38-2.9.17-2.95.36-5.93.15-8.87-.28-3.82-1.51-4.84-5.32-5.1-.99-.07-2-.06-3,0-3.64.2-7.28.5-10.93.64-2.16.08-2.69-.47-2.8-2.52-.05-.83.07-1.66.05-2.5-.18-8.13.2-16.28-1.13-24.36-.19-1.13-.12-2.32-.04-3.47.22-3.01.25-3.08,3.16-3.11,5.66-.06,11.32-.03,16.98-.05,1.33,0,2.69.07,3.99-.16,2.96-.52,3.92-1.66,4.04-4.71.09-2.49.08-5,0-7.49-.14-3.99-.69-4.55-4.76-4.56-9.32-.03-18.63.04-27.95.03-2.42,0-4.8.35-7.23.35-5.15,0-6.64,2.29-6.27,6.29.36,3.96.76,7.92.85,11.89.22,9.15.29,18.3.38,27.46.04,3.99-.13,7.99,0,11.98.19,6.29.65,12.58.79,18.87.13,5.48-.04,10.96-.03,16.44,0,5.58.06,11.16.21,16.72.1,3.61.01,7.2-.1,10.79-.03,1.16-.11,2.34.03,3.49.25,2.02,1.53,3.3,3.54,3.61.81.13,1.66.05,2.49.05,11.32,0,22.64,0,33.96-.02,1,0,2.04.12,2.98-.11,1.66-.41,3.06-1.07,2.97-3.3-.08-1.86.47-3.75.41-5.62-.24-8.09-.21-7.93-6.98-7.91-6.97.02-13.93,0-21.57,0ZM639.74,155.24c0-7.03.07-12.8-.02-18.58-.11-6.47-.34-12.95-.57-19.42-.07-1.98-.34-3.95-.44-5.92-.03-.56.2-1.13.31-1.7.26-1.27.63-2.53.77-3.82.3-2.86.25-2.91,3.28-2.96,3.5-.06,7,.06,10.49-.04,3.09-.09,4.31-1.24,4.44-4.16.13-2.99.18-5.99.09-8.98-.08-2.73-.86-3.39-3.71-3.56-1-.06-2-.04-3,0-8.64.23-17.29.89-25.91.55-5.16-.2-10.2.8-15.32.47-1.76-.12-3.64.44-5.34,1.05-.75.27-1.63,1.41-1.68,2.2-.21,3.27-.17,6.56-.12,9.84.04,2.48.4,2.83,2.92,2.98,1.66.1,3.33,0,5,.01,2.83,0,5.66,0,8.49.04,1.23.02,2.45.28,2.51,1.81.16,4.28.36,8.57.27,12.84-.08,3.6-1.42,7.15-.24,10.83.33,1.03-.09,2.3-.13,3.47-.2,5.95-.39,11.9-.55,17.84-.02.64,0,1.46.37,1.91,1.51,1.89.71,3.88.54,5.88-.18,2.1-.19,4.23-.19,6.34-.01,3.99.28,8.01-.03,11.97-.33,4.13.99,8.11.45,12.29-.28,2.14-1.38,4.96,1.03,6.99.17.15-.3,1.07-.48,1.63-.29.91-.85,1.83-.82,2.73.15,3.97.32,7.96.78,11.91.4,3.42,1.66,4.29,4.91,3.85,3.59-.48,7.16-1.11,10.75-1.6,1.34-.18,1.56-1.05,1.56-2.1,0-4.33.24-8.67-.08-12.98-.58-7.92.85-15.91-.85-23.79,1.63-7.01-.3-14.07.53-19.84ZM852.71,85.98c0-.07,0-.15-.01-.22-9.63.42-19.25.83-28.88,1.26-1,.04-2.06-.03-2.97.3-1.59.59-2.91,1.49-2.85,3.6.09,2.99-.1,5.98-.05,8.98.05,2.79.35,3.12,3.2,3.18,4.33.09,8.66-.01,12.99.04,2.67.04,2.53.12,2.8,2.86.78,7.92-1.23,15.84-.03,23.76.12.77-.39,1.62-.4,2.43-.08,7.05-1.58,14.16.89,21.12.35,1,.58,2.42.14,3.25-1.71,3.2-.7,6.43-.6,9.68.23,7.58.33,15.17.4,22.76.02,2.07-.97,4.23.86,6.06.19.19.05.87-.1,1.25-2.12,5.17-1.16,10.41-.31,15.62.45,2.73.96,3.24,3.51,3.15,2.61-.09,5.19-.7,7.79-1.08,1.91-.28,4.62.07,5.52-1.03,1.01-1.24.38-3.81.45-5.8.01-.33,0-.67-.02-1-.42-5.1.77-10.29-.79-15.33,1.48-7.8-.26-15.67.43-23.5.18-2.11-.55-4.28-.52-6.42.09-6.89.5-13.77.49-20.66-.02-8.31-.33-16.62-.56-24.93-.04-1.31-.45-2.63-.4-3.93.11-2.55.36-5.1.72-7.62.06-.39,1-.87,1.57-.93,1.32-.15,2.66-.07,3.99-.08,2.83-.01,5.68.14,8.49-.06,3.3-.24,4.37-1.5,4.46-4.75.07-2.5.07-5,.05-7.49-.03-3.76-.57-4.39-4.28-4.44-5.33-.08-10.66-.02-15.99-.02ZM528.85,150.96c.07,0,.14,0,.2,0,0-19.14,0-38.29,0-57.43,0-1.16,0-2.33-.09-3.49-.16-1.95-1.25-3.09-3.21-3.11-3.99-.05-7.99-.05-11.98.03-1.75.03-2.73,1.09-2.84,2.85-.05.83-.02,1.66-.02,2.49.04,17.97.09,35.94.11,53.92.02,20.48,0,40.96.05,61.43,0,1.79.53,3.58.74,5.38.27,2.34,1.66,2.97,3.82,2.86,2.32-.12,4.66,0,6.99-.05,5.5-.11,6.6-1.32,6.46-6.98-.09-3.65-.22-7.31-.22-10.96-.02-15.64-.01-31.29-.01-46.93ZM293.79,150.5c0,39.32,0,78.64,0,117.97,0,1.33-.13,2.69.09,3.99.1.6.87,1.43,1.43,1.5.48.06,1.43-.71,1.56-1.25.26-1.11.12-2.31.12-3.48,0-78.81,0-157.62,0-236.43,0-.83.01-1.67,0-2.5-.02-1.16.14-2.48-1.68-2.34-1.75.13-1.47,1.47-1.5,2.59-.04,1.17,0,2.33,0,3.5,0,38.82,0,77.65,0,116.47ZM668.48,215.03c0-.05,0-.1.01-.15,1.64.09,3.28.25,4.92.26,2.38,0,4.2-1.09,4.32-3.22.24-4.11.15-8.26-.09-12.38-.09-1.57-1.31-2.53-3.16-2.45-3.14.12-6.3-.08-9.44.14-4.01.28-5.06,1.57-5.22,5.65-.1,2.47-.22,4.94-.45,7.4-.27,2.89.72,4.38,3.64,4.73,1.79.21,3.63.04,5.45.04Z"/> -->
  <path class="line" d="M58.53,135.67c-1.51-4.04-2.83-7.39-4.02-10.78-7.37-20.89,7.66-43.68,31.27-43.91,15.39-.15,29.84,11.71,32.45,26.37,1.22,6.87.46,13.14-2.04,19.41-.92,2.3-1.95,4.57-2.88,6.86-.6,1.47-.18,2.15,1.55,2.13,6.15-.08,12.29-.34,18.43-.38,3.3-.02,6.61.15,9.9.45,2.85.26,4.5-.82,6-3.3,4.11-6.81,10.29-11.21,17.83-13.55,8.04-2.5,15.88-1.94,23.61,1.63,10.25,4.73,16.33,12.66,18.84,23.48,1.56,6.72.27,13.21-2.24,19.45-1.24,3.08-1.35,5.9-.5,9.17,4.26,16.35,8.47,32.73,12.19,49.21.99,4.4.29,9.21.13,13.82-.07,1.88-1.63,2.81-3.42,3.06-.98.14-2,.04-3,.04-60.99.02-121.99.04-182.98.05-4.1,0-4.54-.43-4.61-4.59-.05-3.33-.03-6.67,0-10,.01-.99.1-2,.34-2.96,6.27-24.95,12.57-49.89,18.86-74.84.61-2.41,1.22-4.83,1.77-7.25.71-3.14,2.02-4.21,5.16-3.72,2.3.36,4.51.21,7.34.13ZM145.11,141.21c-2.16,0-3.65.13-5.1-.03-2.55-.27-3.82.82-4.84,3.16-2.31,5.3-4.7,10.61-7.57,15.62-5.33,9.33-12.3,17.28-21.24,23.39-6.33,4.33-13.32,7.31-20.55,9.71-10.34,3.43-20.79,6.52-31.1,10.02-6.58,2.24-12.87,5.2-18.76,8.95-1.44.92-2.48,1.9-2.99,3.71-1.42,4.97-1.49,5.03,3.52,5.03,26.13,0,52.26,0,78.38,0,.5,0,1,.02,1.5,0,2.87-.13,2.88-.3,3.47-3.02.63-2.89,1.3-5.82,2.45-8.53,3.13-7.4,8.65-12.92,15.11-17.42,5.55-3.87,11.4-7.31,17.14-10.97-1.83-3.59-3.72-7.06-5.39-10.63-4.19-8.99-7.2-18.19-4.04-29ZM35.83,204.95c3.58-1.59,6.31-2.7,8.96-3.98,8.08-3.91,16.65-6.41,25.17-9.07,10.23-3.19,20.68-5.82,29.98-11.5,4.41-2.69,8.61-5.65,12.17-9.35,7.48-7.78,12.33-17.26,16.85-26.91,1.06-2.27.67-2.83-2.05-2.9-3.16-.08-6.38.35-9.48-.1-5.73-.84-9.02,1.46-11.76,6.46-3.16,5.77-7.05,11.23-11.86,15.85-6.97,6.69-8.86,7.09-15.97.15-5.53-5.39-9.7-11.84-13.6-18.41-1.79-3.01-3.72-4.16-7.14-4.04-6.72.23-5.32-.29-6.83,5.43-4.14,15.64-7.97,31.37-11.89,47.07-.91,3.63-1.65,7.3-2.54,11.31ZM84.57,163.06c3.88-1.68,5.69-4.06,7.59-6.37,5.58-6.79,10.07-14.29,14.3-21.96,3.05-5.53,5.76-11.32,6.42-17.61,1.97-18.65-15.16-35.32-35.69-28.81-13.03,4.14-22.26,18.8-17.4,33.59,4.37,13.3,11.74,24.78,20.34,35.6,1.55,1.95,3.11,3.88,4.44,5.55ZM204.42,150.85c-.09-8.2-3.24-15.15-9.08-20.45-6.54-5.94-14.49-8.13-23.47-6.59-15.41,2.65-25.81,18.85-21.11,33.9,4.59,14.69,12.85,27.19,22.59,38.83,2.85,3.4,3.66,3.41,6.69.05,10.2-11.28,18.12-23.97,22.89-38.48.77-2.33.99-4.84,1.47-7.27ZM201.53,176.71c-1.58,2.57-2.74,4.56-3.99,6.48-4.36,6.67-8.73,13.34-14.71,18.75-4.57,4.13-7.27,4.28-11.55.02-3.39-3.38-6.45-7.09-9.6-10.7-1.3-1.49-2.31-4.15-3.75-4.37-1.71-.27-3.84,1.36-5.63,2.42-5.85,3.48-11.84,6.79-16.8,11.54-4.23,4.05-8.02,8.51-9.22,14.42-1.14,5.59-1.82,5.52,4.27,5.52,25.48-.01,50.95,0,76.43,0,1.17,0,2.33,0,3.5-.03,1.28-.05,1.73-.84,1.56-2-.09-.65-.38-1.26-.54-1.9-3.26-13.11-6.51-26.22-9.97-40.14ZM75.01,226.21c-12.98,0-25.95,0-38.93,0-1.16,0-2.34-.09-3.49.07-.53.07-1.39.6-1.42.98-.15,1.64-.4,3.43.14,4.89.23.62,2.32.55,3.57.77.32.06.66,0,1,0,26.12,0,52.24,0,78.36,0,1.16,0,2.35.08,3.48-.11.5-.08,1.19-.69,1.28-1.16.21-1.13.11-2.31.14-3.47.04-1.52-.81-2.02-2.2-1.98-1.16.03-2.33,0-3.49,0-12.81,0-25.62,0-38.43,0ZM168.78,232.93c12.98,0,25.95,0,38.93,0,1.16,0,2.33-.02,3.49,0,1.19.02,1.9-.47,1.93-1.71.02-1,0-2,.01-2.99.03-1.5-.77-2.06-2.18-2.01-.83.03-1.66,0-2.5,0-26.12,0-52.24,0-78.36,0-.83,0-1.66,0-2.5,0-1.92,0-2.67,1.02-2.55,2.85.04.66.02,1.33.01,2,0,1.19.53,1.86,1.78,1.86,1.16,0,2.33,0,3.49,0,12.81,0,25.62,0,38.43,0Z"/>
  <path class="line" d="M735.08,165.44c0-1.63-.02-3.27,0-4.9.33-22.09-.62-44.18-.21-66.28.02-1-.02-2,.01-3,.14-3.61.82-4.59,4.19-4.95,2.64-.28,5.34-.26,7.98-.03,2.64.23,3.87,1.47,4.01,4.22.24,4.45.16,8.92.2,13.38,0,.67-.12,1.34-.05,2,.89,8.47-.41,16.92-.25,25.37.08,4.31.72,8.61.76,12.92.18,20.62.25,41.23.33,61.85.03,8.38-.54,8.95-9.18,8.83-2.13-.03-4.25-.65-6.38-.76-2.96-.16-3.86-2.09-4.42-4.53-.77-3.39-1.58-6.77-2.46-10.13-1.47-5.6-3.53-11.1-4.37-16.79-.75-5.02-2.36-9.74-3.48-14.62-1.11-4.84-2.47-9.62-3.61-14.45-2.09-8.86-4.09-17.74-6.16-26.6-.36-1.53-.9-3.01-2.02-4.43-.07,2.3-.21,4.6-.2,6.9.09,21.32.16,42.63.33,63.95.03,4.07.54,8.13.76,12.2.1,1.99.18,4.01,0,5.99-.27,2.99-1.47,4.11-4.42,4.27-2.49.14-4.99.23-7.48.14-3.12-.11-4.21-1.02-4.67-4.08-.32-2.13-.3-4.32-.3-6.48-.05-12.81.45-25.64-.2-38.42-.93-18.29-.54-36.58-.89-54.86-.13-6.65.07-13.31.14-19.97.04-3.63,1.06-4.98,4.55-5.13,4.99-.21,9.99-.17,14.98-.07,2.63.05,3.84,1.3,4.43,3.85,1.79,7.74,3.83,15.43,5.36,23.21,3.19,16.25,8,32.1,11.54,48.25.23,1.04.32,2.11.48,3.17.23-.01.47-.02.7-.03Z"/>
  <path class="line" d="M402.76,157.17c.33,7.36.67,14.16.91,20.96.15,4.16.13,8.33.19,12.49.09,6.83.25,13.66.22,20.49-.02,4.38-.51,4.73-5.01,4.78-2.67.03-5.33.03-8,0-4.69-.04-5.2-.55-5.29-5.08-.12-5.55-.31-11.1-.37-16.65-.1-9.14-.12-18.28-.17-27.41-.1-16.82-.23-33.64-.28-50.46-.03-8.15.07-16.31.15-24.46.03-3.25.99-4.09,4.31-5.03,3.53-1,6.95-.3,10.38.24,2.25.35,3.13,1.68,3.19,4.34.12,5.33.09,10.66.18,15.98.15,8.47.39,16.94.5,25.41.02,1.45-.55,2.91-.6,4.37-.05,1.43.52,2.61,2.23,2.74,3.95.3,7.91.61,11.86.9.15.01.31-.1.48-.12,4.12-.49,4.27-.89,4.18-4.91-.32-14.14-.52-28.28-.71-42.42-.02-1.3.35-2.63.69-3.9.44-1.64,1.58-2.44,3.32-2.43,3.5.03,7-.09,10.49.07,2.83.13,4.06,1.49,4.37,4.39.12,1.16.13,2.33.13,3.49-.04,12.66.18,25.33-.27,37.97-.18,5,.6,10.06-.63,15.08-.43,1.77.65,3.85.66,5.8.11,18.82.15,37.64.2,56.46,0,.83,0,1.68-.13,2.49-.46,2.65-1.18,3.31-4.02,3.39-3.16.08-6.33-.07-9.49.04-3.87.14-4.95-1.31-4.97-5.27-.08-15.89.23-31.79.39-47.68.01-1,.04-2,0-3-.12-2.54-.41-3-2.85-3.05-5.14-.11-10.28-.03-16.22-.03Z"/>
  <path class="line" d="M587.4,205.31c.6,3.99-.98,7.04-4.4,8.57-9,4.01-18.13,3.66-26.97-.16-7.19-3.1-11.11-9.32-12.95-16.73-.92-3.68-1.3-7.51-1.76-11.29-.15-1.28.03-2.66.36-3.91.46-1.75,1.61-2.81,3.61-2.8,3.33.01,6.66-.18,9.98-.15,3.8.03,4.61.93,4.87,4.72.22,3.13.14,6.37.93,9.36,1.5,5.66,6.48,8,12.07,6.34,2.66-.79,4.08-2.48,5.02-5.01,1.5-4.07.72-7.99-.91-11.62-2.52-5.59-5.27-11.11-8.46-16.34-4.32-7.09-9.16-13.87-13.76-20.79-5.49-8.24-9.67-17.16-11.48-26.84-1.91-10.19-.27-19.83,7.81-27.39,3.24-3.03,6.94-4.84,11.45-5.5,4.35-.64,8.53-.4,12.86.05,10.36,1.07,18.49,11.38,19.33,20.06.21,2.14.66,4.28.67,6.42.01,1.95-.19,3.98-.78,5.82-.25.79-1.88,1.83-2.63,1.66-3.65-.87-7.2.54-10.8.14-2.16-.24-3.09-.82-3.32-2.9-.2-1.81-.13-3.66-.08-5.49.16-5.86-4.2-11.01-12.72-9.35-2.62.51-4.14,2.64-5.24,4.97-2.11,4.44-1.23,8.87.54,13.04,1.61,3.8,3.6,7.48,5.84,10.95,5.12,7.97,10.59,15.72,15.73,23.67,5.63,8.7,10.06,17.97,12.27,28.16,1.42,6.56-.18,12.88-2,19.1-.67,2.31-2.9,2.99-5.08,3.25Z"/>
  <path class="line" d="M473.87,198.09c7.59,0,14.4,0,21.22,0,1.16,0,2.34-.06,3.49.09,2.51.33,3.07,1.11,3.57,3.77.62,3.24.45,6.41-.16,9.61-.46,2.4-1.09,3.11-3.38,3.39-.82.1-1.66.04-2.49.04-11.32,0-22.64,0-33.96.01-.67,0-1.34.05-2-.01-2.67-.24-4.08-1.42-4.14-4.01-.12-5.81-.05-11.63,0-17.45,0-.78.53-1.57.51-2.35-.19-4.97-.48-9.93-.7-14.89-.16-3.58-.88-7.28-.23-10.71.53-2.81-.48-5.25-.32-7.84.3-4.95-.16-9.89-.17-14.83-.03-8.82.14-17.65-.05-26.47-.16-7.14-.72-14.26-1.09-21.39-.05-1-.09-2,0-2.99.22-2.37,1.31-3.83,3.62-4.04,7.36-.68,14.73-1.39,22.15-.64,1.26.13,2.55-.11,3.83-.13,4.49-.08,8.98-.18,13.46-.17,1.72,0,2.89,1,2.96,2.75.13,3.49.14,6.99.09,10.48-.03,1.95-1.38,3.02-3.1,3.42-1.28.29-2.65.23-3.97.24-6.16.03-12.32.04-18.48.02-1.58,0-2.58.46-2.49,2.25.07,1.25-.48,2.37-.22,3.77,1.52,8.21,1.25,16.54,1.33,24.84,0,1,.01,2-.07,2.99-.16,1.85.86,2.27,2.44,2.23,4.66-.1,9.32-.22,13.98-.21,4.57,0,5.55,1,5.69,5.5.06,2.16.05,4.32-.03,6.48-.11,3.3-1.17,4.54-4.43,4.85-2.15.21-4.32.05-6.49.07-2.62.02-5.24-.02-7.86.1-2.14.09-3.63,1.55-2.9,3.46.87,2.28-.16,4.22-.07,6.3.08,1.99.47,3.95-.85,5.76-.26.36.08,1.19.18,1.8.35,2.06,1.11,4.15.98,6.18-.19,2.96-.74,5.75.05,8.82.68,2.63.14,5.57.14,8.92Z"/>
  <path class="line" d="M785.9,197.93c7.64,0,14.6.02,21.57,0,6.77-.02,6.74-.18,6.98,7.91.05,1.87-.49,3.76-.41,5.62.09,2.23-1.31,2.89-2.97,3.3-.95.23-1.99.11-2.98.11-11.32.01-22.64.01-33.96.02-.83,0-1.68.08-2.49-.05-2.01-.32-3.29-1.59-3.54-3.61-.14-1.15-.06-2.33-.03-3.49.11-3.6.19-7.18.1-10.79-.15-5.56-.2-11.15-.21-16.72,0-5.48.16-10.97.03-16.44-.15-6.29-.6-12.58-.79-18.87-.12-3.99.04-7.99,0-11.98-.09-9.15-.16-18.31-.38-27.46-.1-3.97-.49-7.93-.85-11.89-.37-4,1.12-6.29,6.27-6.29,2.43,0,4.82-.35,7.23-.35,9.32,0,18.63-.06,27.95-.03,4.07.01,4.62.57,4.76,4.56.09,2.49.1,5,0,7.49-.11,3.06-1.07,4.19-4.04,4.71-1.3.23-2.66.15-3.99.16-5.66.02-11.32-.01-16.98.05-2.91.03-2.94.1-3.16,3.11-.08,1.15-.15,2.34.04,3.47,1.33,8.08.95,16.23,1.13,24.36.02.83-.1,1.67-.05,2.5.11,2.05.65,2.6,2.8,2.52,3.65-.14,7.29-.44,10.93-.64,1-.06,2-.06,3,0,3.81.26,5.05,1.28,5.32,5.1.21,2.94.02,5.92-.15,8.87-.11,2-1.45,2.88-3.38,2.9-2.66.02-5.33.02-7.99.03-1.17,0-2.33-.07-3.49.01-1.95.13-4.62-.33-5.64.74-1.02,1.07-.24,3.74-.53,5.67-.47,3.14.35,6.46-1.32,9.46-.24.43-.11,1.29.18,1.75,1.24,1.99,1.25,4.25.9,6.3-.99,5.82.97,11.5.14,17.91Z"/>
  <path class="line" d="M639.74,155.24c-.82,5.77,1.1,12.83-.53,19.84,1.7,7.87.27,15.86.85,23.79.32,4.3.09,8.65.08,12.98,0,1.05-.22,1.92-1.56,2.1-3.59.49-7.16,1.11-10.75,1.6-3.25.44-4.51-.43-4.91-3.85-.46-3.95-.63-7.93-.78-11.91-.03-.9.53-1.82.82-2.73.18-.56.65-1.48.48-1.63-2.41-2.03-1.31-4.85-1.03-6.99.54-4.18-.78-8.17-.45-12.29.32-3.97.02-7.98.03-11.97,0-2.12.01-4.24.19-6.34.18-2.01.98-4-.54-5.88-.36-.45-.39-1.27-.37-1.91.16-5.95.35-11.9.55-17.84.04-1.16.46-2.43.13-3.47-1.18-3.68.16-7.23.24-10.83.1-4.28-.11-8.56-.27-12.84-.06-1.53-1.28-1.79-2.51-1.81-2.83-.04-5.66-.03-8.49-.04-1.67,0-3.34.09-5-.01-2.51-.15-2.87-.51-2.92-2.98-.06-3.28-.09-6.57.12-9.84.05-.79.93-1.93,1.68-2.2,1.7-.61,3.58-1.17,5.34-1.05,5.13.34,10.17-.67,15.32-.47,8.61.34,17.27-.32,25.91-.55,1-.03,2-.05,3,0,2.85.17,3.63.83,3.71,3.56.09,2.99.04,5.99-.09,8.98-.13,2.92-1.35,4.07-4.44,4.16-3.5.1-7-.02-10.49.04-3.03.05-2.98.1-3.28,2.96-.13,1.29-.51,2.55-.77,3.82-.12.57-.34,1.14-.31,1.7.1,1.98.37,3.95.44,5.92.23,6.47.47,12.94.57,19.42.09,5.77.02,11.55.02,18.58Z"/>
  <path class="line" d="M852.71,85.98c5.33,0,10.66-.06,15.99.02,3.72.06,4.25.68,4.28,4.44.02,2.5.02,5-.05,7.49-.09,3.26-1.16,4.52-4.46,4.75-2.82.2-5.66.05-8.49.06-1.33,0-2.68-.07-3.99.08-.57.06-1.51.54-1.57.93-.36,2.53-.61,5.08-.72,7.62-.05,1.3.36,2.61.4,3.93.23,8.31.54,16.62.56,24.93.02,6.89-.4,13.77-.49,20.66-.03,2.14.71,4.31.52,6.42-.68,7.83,1.06,15.7-.43,23.5,1.56,5.04.36,10.23.79,15.33.03.33.04.67.02,1-.08,1.99.56,4.56-.45,5.8-.9,1.11-3.61.75-5.52,1.03-2.6.38-5.18.99-7.79,1.08-2.55.09-3.07-.42-3.51-3.15-.85-5.21-1.81-10.45.31-15.62.16-.38.3-1.06.1-1.25-1.83-1.83-.84-3.99-.86-6.06-.07-7.59-.17-15.17-.4-22.76-.1-3.25-1.11-6.48.6-9.68.45-.83.22-2.26-.14-3.25-2.47-6.96-.97-14.07-.89-21.12,0-.81.52-1.66.4-2.43-1.2-7.93.81-15.84.03-23.76-.27-2.75-.14-2.83-2.8-2.86-4.33-.06-8.66.05-12.99-.04-2.86-.06-3.16-.39-3.2-3.18-.05-2.99.14-5.99.05-8.98-.06-2.11,1.25-3.01,2.85-3.6.9-.34,1.97-.26,2.97-.3,9.63-.43,19.25-.84,28.88-1.26,0,.07,0,.15.01.22Z"/>
  <path class="line" d="M528.85,150.96c0,15.64-.01,31.29.01,46.93,0,3.65.14,7.31.22,10.96.14,5.65-.96,6.86-6.46,6.98-2.33.05-4.67-.07-6.99.05-2.16.12-3.55-.51-3.82-2.86-.21-1.8-.73-3.59-.74-5.38-.06-20.48-.03-40.96-.05-61.43-.02-17.97-.07-35.94-.11-53.92,0-.83-.03-1.66.02-2.49.11-1.77,1.09-2.82,2.84-2.85,3.99-.08,7.99-.08,11.98-.03,1.96.03,3.06,1.16,3.21,3.11.09,1.16.09,2.33.09,3.49,0,19.14,0,38.29,0,57.43-.07,0-.14,0-.2,0Z"/>
  <path class="line" d="M293.79,150.5c0-38.82,0-77.65,0-116.47,0-1.17-.03-2.33,0-3.5.04-1.12-.25-2.46,1.5-2.59,1.82-.13,1.66,1.18,1.68,2.34.02.83,0,1.67,0,2.5,0,78.81,0,157.62,0,236.43,0,1.17.14,2.37-.12,3.48-.13.55-1.08,1.32-1.56,1.25-.56-.07-1.33-.9-1.43-1.5-.22-1.3-.09-2.65-.09-3.99,0-39.32,0-78.64,0-117.97Z"/>
  <path class="line" d="M668.48,215.03c-1.82,0-3.66.17-5.45-.04-2.92-.35-3.91-1.83-3.64-4.73.23-2.46.35-4.93.45-7.4.16-4.07,1.21-5.37,5.22-5.65,3.13-.22,6.3-.02,9.44-.14,1.85-.07,3.06.88,3.16,2.45.24,4.12.33,8.27.09,12.38-.13,2.14-1.95,3.23-4.32,3.22-1.64,0-3.28-.16-4.92-.26,0,.05,0,.1-.01.15Z"/>
  <path class="water" d="M145.11,141.21c-3.17,10.81-.16,20.01,4.04,29,1.67,3.57,3.56,7.04,5.39,10.63-5.74,3.65-11.59,7.1-17.14,10.97-6.46,4.5-11.98,10.02-15.11,17.42-1.15,2.71-1.82,5.64-2.45,8.53-.59,2.72-.6,2.9-3.47,3.02-.5.02-1,0-1.5,0-26.13,0-52.26,0-78.38,0-5.01,0-4.94-.06-3.52-5.03.51-1.8,1.55-2.79,2.99-3.71,5.89-3.75,12.19-6.71,18.76-8.95,10.31-3.51,20.76-6.6,31.1-10.02,7.23-2.4,14.21-5.38,20.55-9.71,8.94-6.11,15.91-14.06,21.24-23.39,2.87-5.01,5.26-10.32,7.57-15.62,1.02-2.34,2.29-3.43,4.84-3.16,1.45.15,2.94.03,5.1.03Z"/>
  <path class="grass" d="M35.83,204.95c.9-4,1.64-7.68,2.54-11.31,3.91-15.7,7.75-31.43,11.89-47.07,1.51-5.72.11-5.2,6.83-5.43,3.42-.12,5.36,1.03,7.14,4.04,3.89,6.57,8.07,13.02,13.6,18.41,7.12,6.94,9,6.54,15.97-.15,4.81-4.62,8.7-10.08,11.86-15.85,2.74-5.01,6.03-7.3,11.76-6.46,3.1.45,6.32.02,9.48.1,2.71.07,3.11.63,2.05,2.9-4.52,9.65-9.38,19.13-16.85,26.91-3.56,3.71-7.77,6.66-12.17,9.35-9.3,5.68-19.75,8.31-29.98,11.5-8.53,2.66-17.1,5.16-25.17,9.07-2.65,1.28-5.38,2.4-8.96,3.98Z"/>
  <path class="pin" d="M84.57,163.06c-1.33-1.66-2.89-3.6-4.44-5.55-8.6-10.83-15.97-22.31-20.34-35.6-4.86-14.79,4.37-29.45,17.4-33.59,20.52-6.52,37.65,10.15,35.69,28.81-.66,6.29-3.37,12.08-6.42,17.61-4.23,7.66-8.72,15.16-14.3,21.96-1.9,2.32-3.71,4.69-7.59,6.37ZM74.86,129.21c.67,0,1.33.01,2,0,4.86-.1,4.92-.25,6.35-5.09.54-1.84.36-4.57,3.66-4.27.42.04,1.06-.74,1.35-1.28.77-1.43,2-1.53,3.39-1.51,2.83.04,5.66.07,8.49,0,2.64-.07,3.61-.92,3.81-3.52.17-2.15.09-4.33.04-6.49-.11-4-1.02-4.96-5.07-4.99-7.99-.06-15.98-.05-23.96,0-3.65.02-4.3.87-4.75,4.76-.59,5.09-1.38,10.15-2.04,15.23-.95,7.34.18,7.38,6.23,7.17.17,0,.33,0,.5,0Z"/>
  <path class="pin" d="M204.42,150.85c-.48,2.43-.7,4.93-1.47,7.27-4.78,14.51-12.7,27.19-22.89,38.48-3.04,3.36-3.84,3.35-6.69-.05-9.75-11.64-18.01-24.14-22.59-38.83-4.7-15.06,5.69-31.26,21.11-33.9,8.98-1.54,16.93.65,23.47,6.59,5.84,5.3,8.98,12.25,9.08,20.45ZM178.93,138.79c0-.06,0-.13,0-.19-4.15,0-8.31.16-12.45-.05-3.51-.17-4.69.6-5.08,4.15-.2,1.79-.36,3.58-.6,5.36-.58,4.25-1.32,8.49-1.76,12.76-.42,4.12.4,4.88,4.7,5.01,1.66.05,3.33.03,4.99,0,3.69-.06,4.05-.34,5.28-3.94.16-.47.19-.98.38-1.44.48-1.18.79-3.15,1.55-3.36,2.68-.73,4.13-3.87,7.45-3.33,2.43.39,4.98.17,7.47.05,3.04-.14,4.01-1.21,4.1-4.35.06-2.16.06-4.33,0-6.49-.1-3.5-.65-4.1-4.04-4.17-3.99-.08-7.99-.02-11.98-.02Z"/>
  <path class="grass" d="M201.53,176.71c3.45,13.92,6.71,27.03,9.97,40.14.16.64.45,1.26.54,1.9.16,1.16-.28,1.95-1.56,2-1.16.04-2.33.03-3.5.03-25.48,0-50.95,0-76.43,0-6.08,0-5.41.07-4.27-5.52,1.2-5.9,4.99-10.37,9.22-14.42,4.97-4.75,10.95-8.06,16.8-11.54,1.79-1.07,3.91-2.69,5.63-2.42,1.44.22,2.45,2.88,3.75,4.37,3.16,3.61,6.21,7.33,9.6,10.7,4.27,4.26,6.98,4.11,11.55-.02,5.98-5.41,10.34-12.08,14.71-18.75,1.26-1.92,2.42-3.91,3.99-6.48Z"/>
  <path class="water" d="M75.01,226.21c12.81,0,25.62,0,38.43,0,1.16,0,2.33.03,3.49,0,1.39-.04,2.24.46,2.2,1.98-.03,1.16.07,2.35-.14,3.47-.09.47-.78,1.07-1.28,1.16-1.14.19-2.32.11-3.48.11-26.12,0-52.24,0-78.36,0-.33,0-.67.05-1,0-1.25-.22-3.34-.16-3.57-.77-.54-1.46-.29-3.25-.14-4.89.03-.38.89-.91,1.42-.98,1.14-.16,2.32-.07,3.49-.07,12.98,0,25.95,0,38.93,0Z"/>
  <path class="grass" d="M168.78,232.93c-12.81,0-25.62,0-38.43,0-1.16,0-2.33-.01-3.49,0-1.25,0-1.78-.66-1.78-1.86,0-.67.03-1.33-.01-2-.12-1.83.63-2.85,2.55-2.85.83,0,1.66,0,2.5,0,26.12,0,52.24,0,78.36,0,.83,0,1.66.03,2.5,0,1.41-.05,2.21.51,2.18,2.01-.02,1,0,2-.01,2.99-.03,1.25-.74,1.73-1.93,1.71-1.16-.02-2.33,0-3.49,0-12.98,0-25.95,0-38.93,0Z"/>
  <path class="gun-line" d="M74.86,129.21c-.17,0-.33,0-.5,0-6.05.21-7.18.17-6.23-7.17.66-5.08,1.45-10.15,2.04-15.23.45-3.89,1.1-4.73,4.75-4.76,7.99-.05,15.98-.06,23.96,0,4.04.03,4.96.99,5.07,4.99.06,2.16.13,4.34-.04,6.49-.2,2.6-1.17,3.45-3.81,3.52-2.83.08-5.66.05-8.49,0-1.39-.02-2.62.08-3.39,1.51-.29.54-.93,1.32-1.35,1.28-3.3-.3-3.12,2.43-3.66,4.27-1.43,4.84-1.49,4.99-6.35,5.09-.67.01-1.33,0-2,0ZM86.98,111.15s0,0,0,0c3.14,0,6.28.07,9.41-.06.55-.02,1.37-.8,1.53-1.38.33-1.23-.49-1.73-1.69-1.73-3.47.01-6.94,0-10.4,0-2.64,0-5.28,0-7.93.02-1.11,0-1.93.39-1.89,1.7.04,1.4,1.03,1.46,2.06,1.46,2.97,0,5.94,0,8.91,0ZM78.74,117.42c-3.49-.18-4.63.82-4.57,3.9.01.59.77,1.65,1.16,1.65.82-.02,2.06-.4,2.35-1,.6-1.28.69-2.79,1.06-4.54Z"/>
  <path class="gun-line" d="M178.93,138.79c3.99,0,7.99-.06,11.98.02,3.4.07,3.94.67,4.04,4.17.06,2.16.06,4.33,0,6.49-.09,3.14-1.05,4.21-4.1,4.35-2.49.12-5.04.34-7.47-.05-3.32-.54-4.78,2.61-7.45,3.33-.77.21-1.08,2.18-1.55,3.36-.18.46-.22.97-.38,1.44-1.22,3.6-1.58,3.87-5.28,3.94-1.66.03-3.33.05-4.99,0-4.3-.13-5.12-.89-4.7-5.01.44-4.27,1.18-8.5,1.76-12.76.24-1.78.4-3.58.6-5.36.39-3.55,1.57-4.32,5.08-4.15,4.14.2,8.3.05,12.45.05,0,.06,0,.13,0,.19ZM178.71,144.22h0c-2,0-4-.01-6,0-1.17,0-2.34-.04-3.5.05-1.33.11-2.25.85-2.16,2.24.09,1.38,1.3,1.44,2.27,1.26,3.29-.62,6.55.07,9.83.04,2.67-.03,5.33-.03,8,0,1.24.01,1.85-.55,1.86-1.76,0-1.19-.53-1.83-1.8-1.82-2.83.02-5.67,0-8.5,0ZM169.9,153.91c-1.49.08-2.95-.21-3.26.26-.75,1.15-1.13,2.62-1.34,4.01-.07.49.79,1.61,1.19,1.59.79-.03,1.98-.46,2.26-1.06.59-1.28.7-2.79,1.14-4.8Z"/>
  <path class="gun" d="M86.98,111.15c-2.97,0-5.94,0-8.91,0-1.03,0-2.02-.06-2.06-1.46-.04-1.32.78-1.69,1.89-1.7,2.64-.02,5.28-.01,7.93-.02,3.47,0,6.94.01,10.4,0,1.2,0,2.02.49,1.69,1.73-.16.58-.98,1.36-1.53,1.38-3.13.13-6.27.06-9.41.06,0,0,0,0,0,0Z"/>
  <path class="gun" d="M78.74,117.42c-.37,1.75-.46,3.27-1.06,4.54-.28.6-1.53.99-2.35,1-.39,0-1.15-1.06-1.16-1.65-.06-3.08,1.09-4.08,4.57-3.9Z"/>
  <path class="gun" d="M178.71,144.22c2.83,0,5.67.02,8.5,0,1.27-.01,1.81.63,1.8,1.82-.01,1.21-.62,1.78-1.86,1.76-2.67-.03-5.33-.03-8,0-3.27.04-6.54-.65-9.83-.04-.97.18-2.18.12-2.27-1.26-.09-1.39.83-2.13,2.16-2.24,1.16-.09,2.33-.05,3.5-.05,2,0,4,0,6,0h0Z"/>
  <path class="gun" d="M169.9,153.91c-.44,2.01-.55,3.51-1.14,4.8-.28.61-1.47,1.03-2.26,1.06-.4.01-1.26-1.1-1.19-1.59.21-1.39.58-2.86,1.34-4.01.31-.47,1.77-.17,3.26-.26Z"/>
</svg>